<svg width="16" height="16" viewBox="0 0 16 16" fill="none" xmlns="http://www.w3.org/2000/svg">
<path d="M13.8947 10.9474H7.15789C6.59972 10.9468 6.06458 10.7248 5.6699 10.3301C5.27521 9.93542 5.05322 9.40028 5.05263 8.8421V2.10526C5.05322 1.54709 5.27521 1.01195 5.6699 0.617265C6.06458 0.222578 6.59972 0.000586271 7.15789 0H13.8947C14.4529 0.000586271 14.988 0.222578 15.3827 0.617265C15.7774 1.01195 15.9994 1.54709 16 2.10526V8.8421C15.9994 9.40028 15.7774 9.93542 15.3827 10.3301C14.988 10.7248 14.4529 10.9468 13.8947 10.9474ZM7.15789 0.842105C6.823 0.842471 6.50192 0.975671 6.26511 1.21248C6.0283 1.44929 5.8951 1.77037 5.89474 2.10526V8.8421C5.8951 9.177 6.0283 9.49808 6.26511 9.73489C6.50192 9.9717 6.823 10.1049 7.15789 10.1053H13.8947C14.2296 10.1049 14.5507 9.9717 14.7875 9.73489C15.0243 9.49808 15.1575 9.177 15.1579 8.8421V2.10526C15.1575 1.77037 15.0243 1.44929 14.7875 1.21248C14.5507 0.975671 14.2296 0.842471 13.8947 0.842105H7.15789ZM10.1053 12.2105V13.8947C10.1049 14.2296 9.9717 14.5507 9.73489 14.7875C9.49808 15.0243 9.177 15.1575 8.8421 15.1579H2.10526C1.77037 15.1575 1.44929 15.0243 1.21248 14.7875C0.975671 14.5507 0.842471 14.2296 0.842105 13.8947V7.15789C0.842471 6.823 0.975671 6.50192 1.21248 6.26511C1.44929 6.0283 1.77037 5.8951 2.10526 5.89474H3.78947V5.05263H2.10526C1.54709 5.05322 1.01195 5.27521 0.617265 5.6699C0.222578 6.06458 0.000586271 6.59972 0 7.15789V13.8947C0.000586271 14.4529 0.222578 14.988 0.617265 15.3827C1.01195 15.7774 1.54709 15.9994 2.10526 16H8.8421C9.40028 15.9994 9.93542 15.7774 10.3301 15.3827C10.7248 14.988 10.9468 14.4529 10.9474 13.8947V12.2105H10.1053Z" fill="#535862"/>
</svg>
