<svg width="18" height="18" viewBox="0 0 18 18" fill="none" xmlns="http://www.w3.org/2000/svg">
<g clip-path="url(#clip0_9_19711)">
<path d="M8.99998 5.87503C7.27698 5.87503 5.87488 7.27713 5.87488 9.00013C5.87488 10.7231 7.27698 12.1252 8.99998 12.1252C10.723 12.1252 12.1251 10.7231 12.1251 9.00013C12.1251 7.27713 10.723 5.87503 8.99998 5.87503ZM8.99998 11.2324C7.76965 11.2324 6.76776 10.2305 6.76776 9.00013C6.76776 7.7698 7.76965 6.76792 8.99998 6.76792C10.2303 6.76792 11.2322 7.7698 11.2322 9.00013C11.2322 10.2305 10.2303 11.2324 8.99998 11.2324Z" fill="#535862"/>
<path d="M9.00003 3.30798C5.20526 3.30798 1.77412 5.41116 0.0483934 8.79701C-0.0161311 8.92431 -0.0161311 9.07603 0.0483934 9.20334C1.77401 12.5901 5.20526 14.6924 9.00003 14.6924C12.7948 14.6924 16.2259 12.5892 17.9517 9.20334C18.0162 9.07603 18.0162 8.92431 17.9517 8.79701C16.2261 5.41029 12.7948 3.30798 9.00003 3.30798ZM9.00003 13.7994C5.61867 13.7994 2.5554 11.9666 0.950879 9.00014C2.55616 6.03374 5.61844 4.20087 9.00003 4.20087C12.3816 4.20087 15.4447 6.03372 17.0492 9.00014C15.4439 11.9665 12.3816 13.7994 9.00003 13.7994Z" fill="#535862"/>
</g>
<defs>
<clipPath id="clip0_9_19711">
<rect width="18" height="18" fill="white"/>
</clipPath>
</defs>
</svg>
