<svg width="36" height="36" viewBox="0 0 36 36" fill="none" xmlns="http://www.w3.org/2000/svg">
<path d="M24.8947 12.9474H18.1579C17.5997 12.9468 17.0646 12.7248 16.6699 12.3301C16.2752 11.9354 16.0532 11.4003 16.0526 10.8421V4.10526C16.0532 3.54709 16.2752 3.01195 16.6699 2.61726C17.0646 2.22258 17.5997 2.00059 18.1579 2H24.8947C25.4529 2.00059 25.988 2.22258 26.3827 2.61726C26.7774 3.01195 26.9994 3.54709 27 4.10526V10.8421C26.9994 11.4003 26.7774 11.9354 26.3827 12.3301C25.988 12.7248 25.4529 12.9468 24.8947 12.9474ZM18.1579 2.84211C17.823 2.84247 17.5019 2.97567 17.2651 3.21248C17.0283 3.44929 16.8951 3.77037 16.8947 4.10526V10.8421C16.8951 11.177 17.0283 11.4981 17.2651 11.7349C17.5019 11.9717 17.823 12.1049 18.1579 12.1053H24.8947C25.2296 12.1049 25.5507 11.9717 25.7875 11.7349C26.0243 11.4981 26.1575 11.177 26.1579 10.8421V4.10526C26.1575 3.77037 26.0243 3.44929 25.7875 3.21248C25.5507 2.97567 25.2296 2.84247 24.8947 2.84211H18.1579ZM21.1053 14.2105V15.8947C21.1049 16.2296 20.9717 16.5507 20.7349 16.7875C20.4981 17.0243 20.177 17.1575 19.8421 17.1579H13.1053C12.7704 17.1575 12.4493 17.0243 12.2125 16.7875C11.9757 16.5507 11.8425 16.2296 11.8421 15.8947V9.15789C11.8425 8.823 11.9757 8.50192 12.2125 8.26511C12.4493 8.0283 12.7704 7.8951 13.1053 7.89474H14.7895V7.05263H13.1053C12.5471 7.05322 12.012 7.27521 11.6173 7.6699C11.2226 8.06458 11.0006 8.59972 11 9.15789V15.8947C11.0006 16.4529 11.2226 16.988 11.6173 17.3827C12.012 17.7774 12.5471 17.9994 13.1053 18H19.8421C20.4003 17.9994 20.9354 17.7774 21.3301 17.3827C21.7248 16.988 21.9468 16.4529 21.9474 15.8947V14.2105H21.1053Z" fill="#535862"/>
<path d="M10.998 30.707C10.4805 30.9805 9.83594 31.1172 9.06445 31.1172C8.06836 31.1172 7.27083 30.7965 6.67188 30.1553C6.07292 29.514 5.77344 28.6725 5.77344 27.6309C5.77344 26.5111 6.11035 25.6061 6.78418 24.916C7.45801 24.2259 8.3125 23.8809 9.34766 23.8809C10.0117 23.8809 10.5618 23.9769 10.998 24.1689V25.043C10.4967 24.763 9.94336 24.623 9.33789 24.623C8.53385 24.623 7.88118 24.8916 7.37988 25.4287C6.88184 25.9658 6.63281 26.6836 6.63281 27.582C6.63281 28.4349 6.86556 29.1152 7.33105 29.623C7.7998 30.1276 8.41341 30.3799 9.17188 30.3799C9.875 30.3799 10.4837 30.2236 10.998 29.9111V30.707ZM13.1172 31H12.3164V23.5977H13.1172V31ZM16.8281 31.1172C16.0892 31.1172 15.4984 30.8844 15.0557 30.4189C14.6162 29.9502 14.3965 29.3301 14.3965 28.5586C14.3965 27.7188 14.626 27.0628 15.085 26.5908C15.5439 26.1188 16.1641 25.8828 16.9453 25.8828C17.6908 25.8828 18.2718 26.1123 18.6885 26.5713C19.1084 27.0303 19.3184 27.6667 19.3184 28.4805C19.3184 29.278 19.0921 29.9176 18.6396 30.3994C18.1904 30.8779 17.5866 31.1172 16.8281 31.1172ZM16.8867 26.5566C16.3724 26.5566 15.9655 26.7324 15.666 27.084C15.3665 27.4323 15.2168 27.9141 15.2168 28.5293C15.2168 29.1217 15.3682 29.5889 15.6709 29.9307C15.9736 30.2725 16.3789 30.4434 16.8867 30.4434C17.4043 30.4434 17.8014 30.2757 18.0781 29.9404C18.3581 29.6051 18.498 29.1283 18.498 28.5098C18.498 27.8848 18.3581 27.403 18.0781 27.0645C17.8014 26.7259 17.4043 26.5566 16.8867 26.5566ZM24.748 31H23.9473V28.1484C23.9473 27.0872 23.5599 26.5566 22.7852 26.5566C22.3848 26.5566 22.0527 26.708 21.7891 27.0107C21.5286 27.3102 21.3984 27.6895 21.3984 28.1484V31H20.5977V26H21.3984V26.8301H21.418C21.7956 26.1986 22.3424 25.8828 23.0586 25.8828C23.6055 25.8828 24.0238 26.0602 24.3135 26.415C24.6032 26.7666 24.748 27.276 24.748 27.9434V31ZM30.2803 28.7002H26.75C26.763 29.2568 26.9128 29.6865 27.1992 29.9893C27.4857 30.292 27.8796 30.4434 28.3809 30.4434C28.944 30.4434 29.4616 30.2578 29.9336 29.8867V30.6387C29.4941 30.9577 28.9131 31.1172 28.1904 31.1172C27.484 31.1172 26.929 30.891 26.5254 30.4385C26.1217 29.9827 25.9199 29.3431 25.9199 28.5195C25.9199 27.7415 26.1396 27.1084 26.5791 26.6201C27.0218 26.1286 27.5703 25.8828 28.2246 25.8828C28.8789 25.8828 29.3851 26.0944 29.7432 26.5176C30.1012 26.9408 30.2803 27.5283 30.2803 28.2803V28.7002ZM29.46 28.0215C29.4567 27.5592 29.3444 27.1995 29.123 26.9424C28.9049 26.6852 28.6006 26.5566 28.21 26.5566C27.8324 26.5566 27.5117 26.6917 27.248 26.9619C26.9844 27.2321 26.8216 27.5853 26.7598 28.0215H29.46Z" fill="#101828"/>
</svg>
