<svg width="17" height="18" viewBox="0 0 17 18" fill="none" xmlns="http://www.w3.org/2000/svg">
<g opacity="0.8">
<path d="M8.68709 0H8.31276C7.86162 0 7.42026 0.15509 7.07127 0.435538L0.719231 5.54547C0.261538 5.91352 0 6.45753 0 7.0377V16.0714C0 17.1346 0.880234 18 1.96154 18H15.0385C16.1198 18 17 17.1346 17 16.0714V7.0377C17 6.45753 16.7385 5.91352 16.28 5.54467L9.92875 0.435558C9.57976 0.155108 9.13907 0 8.68709 0ZM11.1152 16.7143H5.88445V10.9286C5.88445 10.5742 6.17704 10.2857 6.53829 10.2857H10.4614C10.8226 10.2857 11.1152 10.5742 11.1152 10.9286V16.7143ZM15.6921 7.03768V16.0714C15.6921 16.4258 15.3996 16.7143 15.0383 16.7143H12.4229V10.9286C12.4229 9.86543 11.5427 8.99999 10.4614 8.99999H6.53829C5.45699 8.99999 4.57676 9.86543 4.57676 10.9286V16.7143H1.96137C1.60011 16.7143 1.30752 16.4258 1.30752 16.0714V7.03768C1.30752 6.84402 1.39498 6.66322 1.54699 6.54027L7.89819 1.43115C8.01506 1.33714 8.16136 1.28571 8.31257 1.28571H8.68691C8.83729 1.28571 8.98441 1.33714 9.10129 1.43115L15.4519 6.54027C15.6047 6.66321 15.6921 6.84483 15.6921 7.03768Z" fill="white"/>
</g>
</svg>
