<svg width="17" height="17" viewBox="0 0 17 17" fill="none" xmlns="http://www.w3.org/2000/svg">
<path d="M16.4991 5.86565C16.4983 5.84027 16.4965 5.81402 16.4912 5.78864C16.4858 5.76327 16.4778 5.73876 16.469 5.71514C16.4663 5.70814 16.4627 5.70201 16.4592 5.69501C16.4521 5.67751 16.4423 5.66088 16.4325 5.64426C16.4281 5.63813 16.4246 5.63113 16.4201 5.62501C16.405 5.60401 16.389 5.58388 16.3704 5.56463L12.3744 1.62688C12.3548 1.60851 12.3344 1.59276 12.3131 1.57788C12.3069 1.5735 12.2998 1.57 12.2936 1.56563C12.2767 1.556 12.2598 1.54725 12.243 1.53938C12.2358 1.53588 12.2287 1.53238 12.2208 1.52975C12.1977 1.521 12.1746 1.51313 12.1506 1.50875C12.1488 1.50875 12.1479 1.50875 12.1462 1.50875C12.1213 1.5035 12.0955 1.50175 12.0689 1.50088C12.0662 1.50088 12.0627 1.5 12.06 1.5H5.97988C5.36804 1.5 4.86987 1.99091 4.86987 2.59382V6.3443C5.15581 6.24455 5.4524 6.16929 5.75787 6.11941V2.59294C5.75787 2.47219 5.85822 2.37418 5.97988 2.37418H11.616V5.54625C11.616 5.96803 11.9641 6.31193 12.393 6.31193H15.612V14.4062C15.612 14.5269 15.5126 14.6249 15.39 14.6249H10.6019C10.3115 14.9557 9.98032 15.2506 9.61447 15.5H15.39C16.0019 15.5 16.5 15.0091 16.5 14.4062V5.8744C16.5 5.8744 16.4991 5.86827 16.4991 5.86565ZM12.504 5.43687V2.99284L14.9842 5.43687H12.504Z" fill="#535862"/>
<path d="M7.20279 4.43051H10.0213C10.2664 4.43051 10.4653 4.23449 10.4653 3.99298C10.4653 3.75146 10.2664 3.55545 10.0213 3.55545H7.20279C6.9577 3.55545 6.75879 3.75146 6.75879 3.99298C6.75879 4.23449 6.9577 4.43051 7.20279 4.43051Z" fill="#535862"/>
<path d="M6.84493 6.0547C6.92573 6.1632 7.05627 6.23321 7.20279 6.23321H10.0213C10.2664 6.23321 10.4653 6.0372 10.4653 5.79568C10.4653 5.55417 10.2664 5.35815 10.0213 5.35815H7.20279C6.9577 5.35815 6.75879 5.55417 6.75879 5.79568C6.75879 5.89281 6.79076 5.98207 6.84493 6.0547Z" fill="#535862"/>
<path d="M14.3264 7.16068H9.87036C10.1998 7.41707 10.4982 7.71021 10.7575 8.03573H14.3264C14.5714 8.03573 14.7704 7.83972 14.7704 7.5982C14.7704 7.35669 14.5714 7.16068 14.3264 7.16068Z" fill="#535862"/>
<path d="M14.3261 8.96341H11.3486C11.4872 9.24168 11.6017 9.53482 11.6878 9.83846H14.3261C14.5712 9.83846 14.7701 9.64245 14.7701 9.40094C14.7701 9.15942 14.5712 8.96341 14.3261 8.96341Z" fill="#535862"/>
<path d="M14.3263 10.7659H11.8604C11.8754 10.9208 11.8826 11.0783 11.8826 11.2376C11.8826 11.3732 11.8772 11.508 11.8675 11.641H14.3263C14.5714 11.641 14.7703 11.445 14.7703 11.2035C14.7703 10.9619 14.5714 10.7659 14.3263 10.7659Z" fill="#535862"/>
<path d="M14.3265 12.5686H11.7068C11.6251 12.8723 11.5159 13.1645 11.3818 13.4437H14.3265C14.5715 13.4437 14.7705 13.2477 14.7705 13.0062C14.7705 12.7646 14.5715 12.5686 14.3265 12.5686Z" fill="#535862"/>
<path d="M7.36891 7.18958L7.43374 7.13707C7.62288 6.98306 7.65041 6.70742 7.49412 6.52103C7.33872 6.33465 7.05811 6.30752 6.86897 6.46153L5.86109 7.27883C5.75897 7.36196 5.69947 7.48622 5.69947 7.6166C5.69947 7.74699 5.75897 7.87124 5.86109 7.95437L6.86897 8.77167C6.95155 8.83905 7.0519 8.87143 7.15135 8.87143C7.27923 8.87143 7.40621 8.81718 7.49412 8.71217C7.64864 8.52666 7.62288 8.25452 7.43729 8.09963C8.8279 8.46016 9.84822 9.71498 9.84822 11.1781C9.84822 12.9334 8.399 14.3615 6.61766 14.3615C4.83633 14.3615 3.38711 12.9334 3.38711 11.1781C3.38711 10.0335 4.01582 8.97119 5.02814 8.40678C5.24126 8.28777 5.31674 8.02088 5.19597 7.81086C5.07521 7.60085 4.80436 7.52647 4.59124 7.64548C3.30098 8.36477 2.5 9.71848 2.5 11.1781C2.5 13.4156 4.34704 15.2366 6.61855 15.2366C8.89006 15.2366 10.7371 13.4165 10.7371 11.1781C10.7371 9.21183 9.29055 7.5396 7.3698 7.1887L7.36891 7.18958Z" fill="#535862"/>
</svg>
