<svg width="15" height="15" viewBox="0 0 15 15" fill="none" xmlns="http://www.w3.org/2000/svg">
<path d="M14.4994 4.86565C14.4985 4.84027 14.4967 4.81402 14.4914 4.78864C14.4861 4.76327 14.4781 4.73876 14.4692 4.71514C14.4665 4.70814 14.463 4.70201 14.4594 4.69501C14.4523 4.67751 14.4426 4.66088 14.4328 4.64426C14.4284 4.63813 14.4248 4.63113 14.4204 4.62501C14.4053 4.60401 14.3893 4.58388 14.3706 4.56463L10.3746 0.626883C10.3551 0.608507 10.3347 0.592756 10.3133 0.57788C10.3071 0.573505 10.3 0.570004 10.2938 0.565629C10.2769 0.556003 10.2601 0.547253 10.2432 0.539377C10.2361 0.535877 10.229 0.532377 10.221 0.529752C10.1979 0.521001 10.1748 0.513126 10.1508 0.508751C10.1491 0.508751 10.1482 0.508751 10.1464 0.508751C10.1215 0.5035 10.0958 0.50175 10.0691 0.500875C10.0665 0.500875 10.0629 0.5 10.0603 0.5H3.98012C3.36829 0.5 2.87012 0.990906 2.87012 1.59382V5.3443C3.15605 5.24455 3.45265 5.16929 3.75812 5.11941V1.59294C3.75812 1.47219 3.85846 1.37418 3.98012 1.37418H9.61627V4.54625C9.61627 4.96803 9.96436 5.31193 10.3933 5.31193H13.6123V13.4062C13.6123 13.5269 13.5128 13.6249 13.3903 13.6249H8.60217C8.31179 13.9557 7.98057 14.2506 7.61471 14.5H13.3903C14.0021 14.5 14.5003 14.0091 14.5003 13.4062V4.8744C14.5003 4.8744 14.4994 4.86827 14.4994 4.86565ZM10.5043 4.43687V1.99284L12.9845 4.43687H10.5043Z" fill="#535862"/>
<path d="M5.20279 3.43051H8.02131C8.2664 3.43051 8.46531 3.23449 8.46531 2.99298C8.46531 2.75146 8.2664 2.55545 8.02131 2.55545H5.20279C4.9577 2.55545 4.75879 2.75146 4.75879 2.99298C4.75879 3.23449 4.9577 3.43051 5.20279 3.43051Z" fill="#535862"/>
<path d="M4.84493 5.0547C4.92573 5.1632 5.05627 5.23321 5.20279 5.23321H8.02131C8.2664 5.23321 8.46531 5.0372 8.46531 4.79568C8.46531 4.55417 8.2664 4.35815 8.02131 4.35815H5.20279C4.9577 4.35815 4.75879 4.55417 4.75879 4.79568C4.75879 4.89281 4.79076 4.98207 4.84493 5.0547Z" fill="#535862"/>
<path d="M12.3261 6.16068H7.87012C8.19957 6.41707 8.49793 6.71021 8.75723 7.03573H12.3261C12.5712 7.03573 12.7701 6.83972 12.7701 6.5982C12.7701 6.35669 12.5712 6.16068 12.3261 6.16068Z" fill="#535862"/>
<path d="M12.3261 7.96341H9.34863C9.48716 8.24168 9.60171 8.53482 9.68785 8.83846H12.3261C12.5712 8.83846 12.7701 8.64245 12.7701 8.40094C12.7701 8.15942 12.5712 7.96341 12.3261 7.96341Z" fill="#535862"/>
<path d="M12.3263 9.76593H9.86035C9.87545 9.92081 9.88255 10.0783 9.88255 10.2376C9.88255 10.3732 9.87722 10.508 9.86746 10.641H12.3263C12.5714 10.641 12.7703 10.445 12.7703 10.2035C12.7703 9.96194 12.5714 9.76593 12.3263 9.76593Z" fill="#535862"/>
<path d="M12.3265 11.5686H9.70684C9.62515 11.8723 9.51592 12.1645 9.38184 12.4437H12.3265C12.5715 12.4437 12.7705 12.2477 12.7705 12.0062C12.7705 11.7646 12.5715 11.5686 12.3265 11.5686Z" fill="#535862"/>
<path d="M5.36891 6.18958L5.43374 6.13707C5.62288 5.98306 5.65041 5.70742 5.49412 5.52103C5.33872 5.33465 5.05811 5.30752 4.86897 5.46153L3.86109 6.27883C3.75897 6.36196 3.69947 6.48622 3.69947 6.6166C3.69947 6.74699 3.75897 6.87124 3.86109 6.95437L4.86897 7.77167C4.95155 7.83905 5.0519 7.87143 5.15135 7.87143C5.27923 7.87143 5.40621 7.81718 5.49412 7.71217C5.64864 7.52666 5.62288 7.25452 5.43729 7.09963C6.8279 7.46016 7.84822 8.71498 7.84822 10.1781C7.84822 11.9334 6.399 13.3615 4.61766 13.3615C2.83633 13.3615 1.38711 11.9334 1.38711 10.1781C1.38711 9.0335 2.01582 7.97119 3.02814 7.40678C3.24126 7.28777 3.31674 7.02088 3.19597 6.81086C3.07521 6.60085 2.80436 6.52647 2.59124 6.64548C1.30098 7.36477 0.5 8.71848 0.5 10.1781C0.5 12.4156 2.34704 14.2366 4.61855 14.2366C6.89006 14.2366 8.73711 12.4165 8.73711 10.1781C8.73711 8.21183 7.29055 6.5396 5.3698 6.1887L5.36891 6.18958Z" fill="#535862"/>
</svg>
