<svg width="18" height="12" viewBox="0 0 18 12" fill="none" xmlns="http://www.w3.org/2000/svg">
<path d="M9.0001 2.87503C7.2771 2.87503 5.875 4.27713 5.875 6.00013C5.875 7.72314 7.2771 9.12524 9.0001 9.12524C10.7231 9.12524 12.1252 7.72314 12.1252 6.00013C12.1252 4.27713 10.7231 2.87503 9.0001 2.87503ZM9.0001 8.23235C7.76977 8.23235 6.76789 7.23047 6.76789 6.00013C6.76789 4.7698 7.76977 3.76792 9.0001 3.76792C10.2304 3.76792 11.2323 4.7698 11.2323 6.00013C11.2323 7.23047 10.2304 8.23235 9.0001 8.23235Z" fill="#535862"/>
<path d="M9.00003 0.307983C5.20526 0.307983 1.77412 2.41116 0.0483934 5.79701C-0.0161311 5.92431 -0.0161311 6.07603 0.0483934 6.20334C1.77401 9.59006 5.20526 11.6924 9.00003 11.6924C12.7948 11.6924 16.2259 9.58918 17.9517 6.20334C18.0162 6.07603 18.0162 5.92431 17.9517 5.79701C16.2261 2.41029 12.7948 0.307983 9.00003 0.307983ZM9.00003 10.7994C5.61867 10.7994 2.5554 8.96655 0.950879 6.00014C2.55616 3.03374 5.61844 1.20087 9.00003 1.20087C12.3816 1.20087 15.4447 3.03372 17.0492 6.00014C15.4439 8.96653 12.3816 10.7994 9.00003 10.7994Z" fill="#535862"/>
</svg>
